# xmcd CD database file
#
# Track frame offsets:
#	150
#	15714
#	31875
#	49458
#	67692
#	88928
#	110372
#	128411
#	144029
#	155129
#	171796
#	197992
#
# Disc length: 2733 seconds
#
# Revision: 0
# Processed by: cddbd v1.5.2PL0 Copyright (c) Steve Scherf et al.
# Submitted via: CDex 1.70beta2
#
DISCID=9b0aab0c
DTITLE=LADY - SUPER LADY
DYEAR=2009
DGENRE=Jazz
TTITLE0=WINGBEATS
TTITLE1=SUPER LADY
TTITLE2=WHAT A WONDERFUL WORLD
TTITLE3=FLY ME TO THE MOON
TTITLE4=OVER THE RAINBOW
TTITLE5=CHINA LADY
TTITLE6=WIND OF THE SEA
TTITLE7=星のワルツ
TTITLE8=ALMOST LIKE BEING IN LOVE
TTITLE9='O SOLE MIO
TTITLE10=WITH YOU
TTITLE11=MOONLIGHT SERENADE
EXTD=YEAR: 2009
EXTT0=
EXTT1=
EXTT2=
EXTT3=
EXTT4=
EXTT5=
EXTT6=
EXTT7=
EXTT8=
EXTT9=
EXTT10=
EXTT11=
PLAYORDER=
